<svg xmlns="http://www.w3.org/2000/svg" height="1200" width="1600" version="1.1" xmlns:xlink="http://www.w3.org/1999/xlink" xmlns:svgjs="http://svgjs.com/svgjs"><rect fill="#effaff" width="1600" height="1200"></rect><g><path d="M421.66 1088.73H472.4" stroke="#333333" stroke-width="2" stroke-linecap="round" stroke-linejoin="round" opacity="1" fill="none"></path><path d="M480.02 1088.73H664.21 769.97" stroke="#333333" stroke-width="2" stroke-linecap="round" stroke-linejoin="round" opacity="1" fill="none"></path><path d="M803.32 1074.57C794.98 1083.27 783.13 1088.61 769.91 1088.61" stroke="#333333" stroke-width="2" stroke-linecap="round" stroke-linejoin="round" opacity="1" fill="none"></path><path d="M769.97 999.45C795.22 999.45 815.83 1019.41 815.83 1044.12 815.83 1052.99 813.2 1061.41 808.5 1068.37" stroke="#333333" stroke-width="2" stroke-linecap="round" stroke-linejoin="round" opacity="1" fill="none"></path><path d="M669.51 965.58H1091.13" stroke="#333333" stroke-width="2" stroke-linecap="round" stroke-linejoin="round" opacity="1" fill="none"></path><path d="M1100.59 965.58H1130.49" stroke="#333333" stroke-width="2" stroke-linecap="round" stroke-linejoin="round" opacity="1" fill="none"></path><path d="M669.51 965.58C659.92 965.58 652.06 973.23 652.06 982.57 652.06 991.91 659.92 999.57 669.51 999.57H761.63" stroke="#333333" stroke-width="2" stroke-linecap="round" stroke-linejoin="round" opacity="1" fill="none"></path></g><g><path d="M351.93 621.65C354.85 626.36 357.98 630.97 361.11 635.69 347.08 666.39 343.25 701.93 350.41 736.69 361.01 787.69 397.04 822.02 440.04 840.66 457.6 848.23 476.07 852.84 494.64 856.46 520.69 861.39 547.03 865.01 573.17 867.86 619.8 872.91 666.63 875.32 713.46 877.18 806.52 881.02 900.39 885.96 993.04 873.67 1082.67 862.16 1181.69 839.13 1248.91 768.72 1284.43 731.32 1309.36 679.66 1310.37 625.05 1310.98 593.46 1303.41 562.53 1288.87 535.99 1291.9 503.31 1291.09 469.97 1286.65 437.73 1277.57 372.25 1241.03 318.62 1190.97 282.98 1140 246.79 1078.33 233.63 1018.28 231.32 954.79 228.69 531.18 195.13 362.22 350.65 342.74 374.56 328.11 402.63 320.34 433.23 304.09 496.73 318.22 567.36 351.93 621.65Z" fill="#deeff7" opacity="1" stroke-width="2" stroke="none"></path></g><g><path d="M727.4 707.73C723.45 707.73 720.36 711.36 720.36 715.93V750.58H734.51V715.93C734.51 711.44 731.34 707.73 727.4 707.73Z" fill="#46cdcf" stroke="#333333" stroke-width="2" stroke-linecap="round" stroke-linejoin="round" opacity="1"></path><path d="M908.58 707.73C904.63 707.73 901.54 711.36 901.54 715.93V750.58H915.62V715.93C915.62 711.44 912.52 707.73 908.58 707.73Z" fill="#46cdcf" stroke="#333333" stroke-width="2" stroke-linecap="round" stroke-linejoin="round" opacity="1"></path><path d="M663.57 893.86L691.73 744.4H944.09L972.32 893.86V903.99H663.57V893.86Z" fill="#abedd8" stroke="#333333" stroke-width="2" stroke-linecap="round" stroke-linejoin="round" opacity="1"></path><path d="M862.24 375.46L872.37 365.33 880.8 356.89C897.44 340.26 924.51 340.26 941.3 356.89L954.37 369.97 915.62 408.73 893.8 386.91 822.71 457.93 844.52 479.74 805.76 518.5 792.69 505.43C776.06 488.79 776.06 461.72 792.69 444.93L801.12 436.5 856.67 380.95" fill="#abedd8" opacity="1" stroke-width="2" stroke="none"></path><path d="M862.24 375.46L872.37 365.33 880.8 356.89C897.44 340.26 924.51 340.26 941.3 356.89L954.37 369.97 915.62 408.73 893.8 386.91 822.71 457.93 844.52 479.74 805.76 518.5 792.69 505.43C776.06 488.79 776.06 461.72 792.69 444.93L801.12 436.5 856.67 380.95" stroke="#333333" stroke-width="2" stroke-linecap="round" stroke-linejoin="round" opacity="1" fill="none"></path><path d="M972.32 893.86H663.57V941.82H972.32V893.86Z" fill="#abedd8" stroke="#333333" stroke-width="2" stroke-linecap="round" stroke-linejoin="round" opacity="1"></path><path d="M817.91 870.88C846.49 870.88 869.66 847.71 869.66 819.13 869.66 790.55 846.49 767.37 817.91 767.37 789.32 767.37 766.15 790.55 766.15 819.13 766.15 847.71 789.32 870.88 817.91 870.88Z" fill="#46cdcf" stroke="#333333" stroke-width="2" stroke-linecap="round" stroke-linejoin="round" opacity="1"></path><path d="M817.91 832.2C825.13 832.2 830.98 826.35 830.98 819.13 830.98 811.91 825.13 806.05 817.91 806.05 810.69 806.05 804.84 811.91 804.84 819.13 804.84 826.35 810.69 832.2 817.91 832.2Z" fill="#46cdcf" stroke="#333333" stroke-width="2" stroke-linecap="round" stroke-linejoin="round" opacity="1"></path><path d="M680.9 941.74V964.18" stroke="#333333" stroke-width="2" stroke-linecap="round" stroke-linejoin="round" opacity="1" fill="none"></path><path d="M955.07 941.74V964.18" stroke="#333333" stroke-width="2" stroke-linecap="round" stroke-linejoin="round" opacity="1" fill="none"></path><path d="M845.6 846.74L869.66 870.88" stroke="#333333" stroke-width="2" stroke-linecap="round" stroke-linejoin="round" opacity="1" fill="none"></path><path d="M687.63 766.52H550.78C526.26 766.52 506.38 746.64 506.38 722.12 506.38 697.59 526.26 677.71 550.78 677.71H773.27" stroke="#333333" stroke-width="2" stroke-linecap="round" stroke-linejoin="round" opacity="1" fill="none"></path><path d="M785.65 677.56H1029.57" stroke="#333333" stroke-width="2" stroke-linecap="round" stroke-linejoin="round" opacity="1" fill="none"></path><path d="M1040.4 677.56H1102.83C1113.97 677.56 1123.1 668.5 1123.1 657.29 1123.1 646.15 1114.05 637.02 1102.83 637.02H724.15" stroke="#333333" stroke-width="2" stroke-linecap="round" stroke-linejoin="round" opacity="1" fill="none"></path><path d="M628.07 572.42H651.27" stroke="#333333" stroke-width="2" stroke-linecap="round" stroke-linejoin="round" opacity="1" fill="none"></path><path d="M712.31 637.1H509.16C491.29 637.1 476.9 622.55 476.9 604.84 476.9 586.97 491.45 572.58 509.16 572.58H616.46" stroke="#333333" stroke-width="2" stroke-linecap="round" stroke-linejoin="round" opacity="1" fill="none"></path><path d="M663.57 572.42H710.22C737.14 572.42 758.88 550.61 758.88 523.76V507.67C758.88 495.37 768.86 485.39 781.16 485.39" stroke="#333333" stroke-width="2" stroke-linecap="round" stroke-linejoin="round" opacity="1" fill="none"></path><path d="M791.3 511.77L837.95 465.12" stroke="#333333" stroke-width="2" stroke-linecap="round" stroke-linejoin="round" opacity="1" fill="none"></path><path d="M947.8 355.42L901.15 402" stroke="#333333" stroke-width="2" stroke-linecap="round" stroke-linejoin="round" opacity="1" fill="none"></path></g><g><path d="M416.88 462.3C416.62 459.9 416.48 457.31 416.48 454.92 416.48 418.78 445.72 389.54 481.86 389.54 518.01 389.54 547.24 418.78 547.24 454.92 547.24 491.06 518.01 520.3 481.86 520.3 451.83 520.3 426.45 499.97 418.94 472.39" fill="#abedd8" opacity="1" stroke-width="2" stroke="none"></path><path d="M416.88 462.3C416.62 459.9 416.48 457.31 416.48 454.92 416.48 418.78 445.72 389.54 481.86 389.54 518.01 389.54 547.24 418.78 547.24 454.92 547.24 491.06 518.01 520.3 481.86 520.3 451.83 520.3 426.45 499.97 418.94 472.39" stroke="#333333" stroke-width="2" stroke-linecap="round" stroke-linejoin="round" opacity="1" fill="none"></path><path d="M547.24 454.92C547.24 446.68 545.85 438.64 542.79 431.27H523.99V504.75C538.21 492.79 547.24 474.85 547.24 454.92Z" fill="#78c7e0" stroke="#333333" stroke-width="2" stroke-linecap="round" stroke-linejoin="round" opacity="1"></path><path d="M427.11 459.77L436.42 501.83C448.24 513.26 464.26 520.3 482.06 520.3 484.32 520.3 486.71 520.17 489.04 519.9L475.95 459.77H427.11V459.77Z" fill="#ffffff" stroke="#333333" stroke-width="2" stroke-linecap="round" stroke-linejoin="round" opacity="1"></path><path d="M496.48 465.35H465.19C456.28 465.35 449.04 472.59 449.04 481.5V511.44C458.61 517.24 469.9 520.3 481.86 520.3 493.03 520.3 503.46 517.51 512.63 512.53V481.5C512.63 472.59 505.38 465.35 496.48 465.35Z" fill="#ffffff" stroke="#333333" stroke-width="2" stroke-linecap="round" stroke-linejoin="round" opacity="1"></path><path d="M465.12 465.09C468.18 470.53 474.16 474.25 480.87 474.25 490.77 474.25 498.94 466.15 498.94 456.18 498.94 453.39 498.27 450.73 497.01 448.28 497.01 448.28 488.77 435.45 471.83 442.96 464.32 446.42 463.59 455.52 465.12 465.09Z" fill="#ffffff" stroke="#333333" stroke-width="2" stroke-linecap="round" stroke-linejoin="round" opacity="1"></path><path d="M480.87 438.24C477.68 438.24 474.75 438.97 472.1 440.5 468.91 442.3 466.25 445.09 464.59 448.41 463.46 450.8 462.66 453.52 462.66 456.32 462.66 459.5 463.52 462.56 464.92 465.09 469.5 464.09 472.83 459.97 472.83 455.19V448.48H497.08C494.42 442.3 487.98 438.24 480.87 438.24Z" fill="#48466d" stroke="#333333" stroke-width="2" stroke-linecap="round" stroke-linejoin="round" opacity="1"></path><path d="M492.29 448.56V458.97" stroke="#333333" stroke-width="2" stroke-linecap="round" stroke-linejoin="round" opacity="1" fill="none"></path><path d="M486.18 458.97C486.18 460.63 487.58 462.03 489.24 462.03 490.9 462.03 492.29 460.63 492.29 458.97" stroke="#333333" stroke-width="2" stroke-linecap="round" stroke-linejoin="round" opacity="1" fill="none"></path><path d="M468.91 518.97V501.7" stroke="#333333" stroke-width="2" stroke-linecap="round" stroke-linejoin="round" opacity="1" fill="none"></path><path d="M477.94 492.66C477.94 497.64 473.89 501.7 468.91 501.7" stroke="#333333" stroke-width="2" stroke-linecap="round" stroke-linejoin="round" opacity="1" fill="none"></path></g><g><path d="M345.22 779.12C311.57 779.12 284.28 751.84 284.28 718.18 284.28 684.53 311.57 657.24 345.22 657.24 378.88 657.24 406.17 684.53 406.17 718.18 406.17 751.84 378.88 779.12 345.22 779.12Z" fill="#48466d" stroke="#333333" stroke-width="2" stroke-linecap="round" stroke-linejoin="round" opacity="1"></path><path d="M345.22 965.83V720.12" stroke="#333333" stroke-width="2" stroke-linecap="round" stroke-linejoin="round" opacity="1" fill="none"></path><path d="M322.9 726.53L345.22 748.65 367.54 726.53" stroke="#333333" stroke-width="2" stroke-linecap="round" stroke-linejoin="round" opacity="1" fill="none"></path><path d="M415.68 897.9C396.17 897.9 380.35 882.09 380.35 862.58 380.35 843.07 396.17 827.26 415.68 827.26 435.18 827.26 451 843.07 451 862.58 451 882.09 435.18 897.9 415.68 897.9Z" fill="#3d84a8" stroke="#333333" stroke-width="2" stroke-linecap="round" stroke-linejoin="round" opacity="1"></path><path d="M415.68 965.83L415.68 862.58" stroke="#333333" stroke-width="2" stroke-linecap="round" stroke-linejoin="round" opacity="1" fill="none"></path></g><g><path d="M1279.78 740.09C1320.31 740.09 1353.16 707.23 1353.16 666.71 1353.16 626.19 1320.31 593.33 1279.78 593.33 1239.26 593.33 1206.4 626.19 1206.4 666.71 1206.4 707.23 1239.26 740.09 1279.78 740.09Z" fill="#48466d" stroke="#333333" stroke-width="2" stroke-linecap="round" stroke-linejoin="round" opacity="1"></path><path d="M1279.78 964.91V669.05" stroke="#333333" stroke-width="2" stroke-linecap="round" stroke-linejoin="round" opacity="1" fill="none"></path><path d="M1306.66 676.76L1279.78 703.4 1252.91 676.76" stroke="#333333" stroke-width="2" stroke-linecap="round" stroke-linejoin="round" opacity="1" fill="none"></path><path d="M1194.95 883.12C1218.44 883.12 1237.48 864.07 1237.48 840.58 1237.48 817.1 1218.44 798.05 1194.95 798.05 1171.46 798.05 1152.42 817.1 1152.42 840.58 1152.42 864.07 1171.46 883.12 1194.95 883.12Z" fill="#3d84a8" stroke="#333333" stroke-width="2" stroke-linecap="round" stroke-linejoin="round" opacity="1"></path><path d="M1194.95 964.91V840.58" stroke="#333333" stroke-width="2" stroke-linecap="round" stroke-linejoin="round" opacity="1" fill="none"></path></g><g><path d="M1328.43 212.74L1464.06 212.74C1475 212.74 1484.01 221.68 1484.01 232.69 1484.01 243.64 1475.07 252.64 1464.06 252.64L1328.43 252.64C1317.49 252.64 1308.48 243.71 1308.48 232.69 1308.48 221.6 1317.34 212.74 1328.43 212.74Z" fill="#3d84a8" stroke="#333333" stroke-width="2" stroke-linecap="round" stroke-linejoin="round" opacity="1"></path><path d="M1274.76 274.53H1361.63" stroke="#333333" stroke-width="2" stroke-linecap="round" stroke-linejoin="round" opacity="1" fill="none"></path><path d="M1173.15 274.53H1266.5" stroke="#333333" stroke-width="2" stroke-linecap="round" stroke-linejoin="round" opacity="1" fill="none"></path><path d="M1370.26 274.53C1382.4 274.53 1392.15 264.7 1392.15 252.64" stroke="#333333" stroke-width="2" stroke-linecap="round" stroke-linejoin="round" opacity="1" fill="none"></path></g><g><path d="M1299.81 300.43H1233.33C1246.18 300.43 1256.61 290.19 1256.61 277.15 1256.61 264.3 1246.18 254.06 1233.33 254.06H1085.67C1072.82 254.06 1062.39 264.3 1062.39 277.15 1062.39 290 1072.63 300.43 1085.67 300.43H1061.27C1046.56 300.43 1034.46 312.53 1034.46 327.24 1034.46 341.95 1046.56 354.06 1061.27 354.06H1299.81C1314.71 354.06 1326.62 341.95 1326.62 327.24 1326.62 312.35 1314.71 300.43 1299.81 300.43Z" fill="#78c7e0" stroke="#333333" stroke-width="2" stroke-linecap="round" stroke-linejoin="round" opacity="1"></path><path d="M1085.67 300.43H1110.99" stroke="#333333" stroke-width="2" stroke-linecap="round" stroke-linejoin="round" opacity="1" fill="none"></path><path d="M1123.28 300.43H1140.04" stroke="#333333" stroke-width="2" stroke-linecap="round" stroke-linejoin="round" opacity="1" fill="none"></path></g></svg>